<svg width="16" height="18" viewBox="0 0 16 18" fill="none" xmlns="http://www.w3.org/2000/svg">
<path d="M7.8986 0C5.98083 0 4.51608 1.78313 4.35836 3.96H0.719693C0.311093 3.96 -0.0216257 4.31316 0.00109895 4.72078L0.621958 15.5827C0.675769 16.532 1.46788 17.28 2.41844 17.28H13.3788C14.3296 17.28 15.1214 16.5319 15.1752 15.5827L15.7961 4.72148C15.8195 4.31357 15.4861 3.96 15.0775 3.96H11.4388C11.2811 1.78313 9.81637 0 7.8986 0ZM7.8986 0.72C9.3519 0.72 10.5658 2.11925 10.7195 3.96H5.07766C5.23139 2.11925 6.4453 0.72 7.8986 0.72ZM7.92743 6.12C9.30983 6.12 10.3463 6.86194 10.4327 6.91594L10.0621 7.51711C9.97211 7.45591 9.81042 7.35834 9.74922 7.32234C9.38202 7.12434 8.70503 6.82945 7.92743 6.82945C6.75743 6.82945 5.91157 7.4772 5.91157 8.37C5.91157 9.2592 6.69628 9.61192 7.98508 10.0835C9.29188 10.5587 10.7681 11.0987 10.7681 12.8159C10.7681 14.1083 9.49345 15.1235 7.86625 15.1235C6.42985 15.1235 5.24903 14.2417 4.95743 14.0077L5.3568 13.4135C5.3676 13.4243 6.51625 14.4105 7.86625 14.4105C9.07585 14.4105 10.0586 13.6943 10.0586 12.8159C10.0586 11.6783 9.184 11.275 7.7404 10.7494C6.5524 10.3138 5.20211 9.8208 5.20211 8.37C5.20211 7.0884 6.37223 6.12 7.92743 6.12Z" fill="currentColor"/>
</svg>
