<svg width="18" height="15" viewBox="0 0 18 15" fill="none" xmlns="http://www.w3.org/2000/svg">
<path d="M17.3001 0.671542C17.3166 0.572445 17.3069 0.470764 17.272 0.376561C17.2371 0.282357 17.1783 0.198897 17.1012 0.134437C17.0242 0.0699769 16.9316 0.026752 16.8327 0.00903924C16.7338 -0.00867349 16.6321 -0.000260145 16.5374 0.0334467L0.383098 5.80285C0.276615 5.84082 0.183634 5.90924 0.115705 5.9996C0.0477765 6.08997 0.00789321 6.1983 0.00100969 6.31114C-0.00587382 6.42398 0.0205458 6.53636 0.0769868 6.63431C0.133428 6.73226 0.217403 6.81148 0.31848 6.86211L4.934 9.16987C5.02496 9.2154 5.12634 9.23607 5.22786 9.22979C5.32938 9.2235 5.42744 9.19049 5.5121 9.1341L9.34298 6.57941L7.05022 9.44796C7.00032 9.51039 6.96395 9.58251 6.94339 9.65975C6.92283 9.73698 6.91855 9.81765 6.93081 9.89662C6.94307 9.9756 6.9716 10.0512 7.0146 10.1185C7.0576 10.1859 7.11413 10.2436 7.18061 10.288L14.1039 14.9035C14.1841 14.9568 14.2763 14.9892 14.3722 14.9977C14.4681 15.0063 14.5646 14.9907 14.6529 14.9524C14.7412 14.914 14.8186 14.8542 14.8779 14.7784C14.9371 14.7025 14.9765 14.6131 14.9924 14.5181L17.3001 0.671542Z" fill="currentColor"/>
</svg>
