<svg width="18" height="18" viewBox="0 0 18 18" fill="none" xmlns="http://www.w3.org/2000/svg">
<path fill-rule="evenodd" clip-rule="evenodd" d="M9 18C13.9706 18 18 13.9706 18 9C18 4.02945 13.9706 0 9 0C4.02943 0 0 4.02945 0 9C0 13.9706 4.02943 18 9 18ZM11.9822 5.186C12.0509 5.23077 12.1219 5.27206 12.1948 5.30972C12.6691 5.5462 13.1323 5.61819 13.3605 5.59344V7.43475C13.3605 7.43475 12.7093 7.40775 12.2261 7.27951C11.5524 7.0993 11.1207 6.82257 11.1207 6.82257C11.1207 6.82257 10.821 6.62436 10.7985 6.61084V10.4159C10.7985 10.6273 10.7425 11.1565 10.5746 11.5977C10.4276 11.975 10.2172 12.3245 9.95278 12.6311C9.95278 12.6311 9.5388 13.1443 8.81164 13.4887C8.20561 13.776 7.66648 13.7917 7.45227 13.798C7.43475 13.7985 7.4194 13.799 7.40636 13.7995C7.40636 13.7995 6.41078 13.8395 5.51285 13.2293L5.50835 13.2249V13.2293C5.20477 13.0175 4.93405 12.7621 4.70492 12.4713C4.42075 12.1089 4.24639 11.679 4.20139 11.5529V11.5485C4.12984 11.3345 3.97977 10.8168 4.00227 10.3171C4.03805 9.43671 4.33346 8.89426 4.41176 8.75928C4.6175 8.3891 4.88627 8.05765 5.20596 7.77988C5.57082 7.47403 5.99509 7.2471 6.45203 7.11343C6.90897 6.97977 7.38866 6.94223 7.86083 7.00323L7.85858 8.89178C7.70305 8.84109 7.54047 8.81537 7.37688 8.81552C6.5127 8.81552 5.81231 9.52017 5.81231 10.3904C5.81231 11.2607 6.5127 11.9654 7.37688 11.9654C7.64594 11.9657 7.91045 11.8959 8.14432 11.7629C8.36871 11.6354 8.55833 11.4547 8.69651 11.2367C8.83469 11.0187 8.91718 10.7702 8.93673 10.5128V10.5088C8.93785 10.5034 8.93785 10.498 8.93785 10.4928C8.93825 10.4855 8.93879 10.4788 8.93918 10.4721C8.93945 10.4673 8.93965 10.4626 8.93965 10.4577C8.9437 10.3636 8.9437 10.2685 8.9437 10.1722V3H10.7985C10.7956 3 10.7762 3.17773 10.823 3.45245H10.8208C10.8768 3.78342 11.0289 4.2561 11.4361 4.72208C11.5989 4.89804 11.7822 5.0538 11.9822 5.186Z" fill="currentColor"/>
</svg>
