<svg width="15" height="15" viewBox="0 0 15 15" fill="none" xmlns="http://www.w3.org/2000/svg">
<path fill-rule="evenodd" clip-rule="evenodd" d="M3.51562 0H11.4844C13.426 0 15 1.574 15 3.51562V11.4844C15 13.426 13.426 15 11.4844 15H3.51562C1.574 15 0 13.426 0 11.4844V3.51562C0 1.574 1.574 0 3.51562 0ZM11.7001 5.63595C11.7001 5.54209 11.7001 5.4491 11.6937 5.35611C12.1174 5.04967 12.4831 4.67015 12.7734 4.23527C12.3787 4.41052 11.9598 4.52534 11.5308 4.57588C11.9825 4.30545 12.3205 3.88017 12.482 3.37916C12.0572 3.63113 11.5925 3.80878 11.108 3.90445C10.2887 3.0334 8.91803 2.99138 8.0465 3.81064C7.77032 4.07028 7.56714 4.39788 7.45729 4.76068C7.34744 5.12349 7.33477 5.50877 7.42055 5.87801C6.56023 5.83501 5.71858 5.61152 4.95026 5.22205C4.18195 4.83258 3.50416 4.28584 2.96092 3.61734C2.38682 4.60629 2.6799 5.87115 3.63064 6.5066C3.28634 6.49627 2.94955 6.40339 2.64861 6.23578V6.2632C2.64861 7.29328 3.37488 8.18021 4.38434 8.38418C4.06585 8.4712 3.73165 8.48395 3.40746 8.42144C3.54577 8.85135 3.81496 9.22729 4.17741 9.4967C4.53985 9.76612 4.97742 9.91554 5.42895 9.92408C4.66259 10.526 3.71611 10.8529 2.7416 10.8521C2.56934 10.8517 2.39754 10.8415 2.22656 10.8209C3.21615 11.4559 4.36759 11.7926 5.54338 11.7909V11.7927C9.52348 11.7927 11.7001 8.49515 11.7001 5.63595Z" fill="currentColor"/>
</svg>
