<svg width="19" height="19" viewBox="0 0 19 19" fill="none" xmlns="http://www.w3.org/2000/svg">
<path d="M10.9028 9.24346L8.79721 8.26096C8.61346 8.17565 8.46252 8.27127 8.46252 8.47471V10.3253C8.46252 10.5288 8.61346 10.6244 8.79721 10.5391L10.9019 9.55659C11.0866 9.47034 11.0866 9.32971 10.9028 9.24346ZM9.40002 0.400024C4.4294 0.400024 0.400024 4.4294 0.400024 9.40002C0.400024 14.3706 4.4294 18.4 9.40002 18.4C14.3706 18.4 18.4 14.3706 18.4 9.40002C18.4 4.4294 14.3706 0.400024 9.40002 0.400024ZM9.40002 13.0563C4.79315 13.0563 4.71252 12.641 4.71252 9.40002C4.71252 6.15909 4.79315 5.74377 9.40002 5.74377C14.0069 5.74377 14.0875 6.15909 14.0875 9.40002C14.0875 12.641 14.0069 13.0563 9.40002 13.0563Z" fill="currentColor"/>
</svg>
