<svg width="17" height="17" viewBox="0 0 17 17" fill="none" xmlns="http://www.w3.org/2000/svg">
<path d="M2.02381 0C0.91091 0 0 0.91091 0 2.02381V14.9762C0 16.0891 0.91091 17 2.02381 17H14.9762C16.0891 17 17 16.0891 17 14.9762V2.02381C17 0.91091 16.0891 0 14.9762 0H2.02381ZM2.02381 0.809524H4.68717C3.24173 2.31349 2.42857 4.25732 2.42857 6.27381C2.42857 8.36238 3.28268 10.3618 4.82078 11.8757C4.86935 11.9607 4.90973 12.3774 4.72354 12.8591C4.60616 13.1627 4.3713 13.5592 3.91797 13.7089C3.74392 13.7656 3.63071 13.9363 3.64286 14.1184C3.655 14.3006 3.78889 14.4544 3.96698 14.4908C5.12865 14.7215 5.88091 14.3731 6.48805 14.0979C7.03448 13.8469 7.39525 13.6767 7.94978 13.9034C9.08311 14.3446 10.289 14.5714 11.5357 14.5714C13.1927 14.5714 14.7865 14.167 16.1905 13.403V14.9762C16.1905 15.6515 15.6515 16.1905 14.9762 16.1905H2.02381C1.34847 16.1905 0.809524 15.6515 0.809524 14.9762V2.02381C0.809524 1.34847 1.34847 0.809524 2.02381 0.809524ZM11.7381 4.45238C11.9607 4.45238 12.1429 4.63452 12.1429 4.85714V8.5C12.1429 8.72262 11.9607 8.90476 11.7381 8.90476C11.5155 8.90476 11.3333 8.72262 11.3333 8.5V4.85714C11.3333 4.63452 11.5155 4.45238 11.7381 4.45238ZM5.66667 4.85714H7.69048C7.83619 4.85714 7.97416 4.93791 8.04701 5.06743C8.11582 5.19291 8.11127 5.35067 8.03437 5.47614L6.39555 8.09524H7.69048C7.9131 8.09524 8.09524 8.27738 8.09524 8.5C8.09524 8.72262 7.9131 8.90476 7.69048 8.90476H5.66667C5.52095 8.90476 5.38299 8.824 5.31013 8.69448C5.24132 8.569 5.24587 8.41124 5.32278 8.28576L6.96159 5.66667H5.66667C5.44405 5.66667 5.2619 5.48452 5.2619 5.2619C5.2619 5.03929 5.44405 4.85714 5.66667 4.85714ZM9.5119 6.07143C9.75881 6.07143 9.9893 6.13992 10.1957 6.25326C10.2686 6.14802 10.3821 6.07143 10.5238 6.07143C10.7464 6.07143 10.9286 6.25357 10.9286 6.47619V8.5C10.9286 8.72262 10.7464 8.90476 10.5238 8.90476C10.3821 8.90476 10.2686 8.82817 10.1957 8.72294C9.9893 8.83627 9.75881 8.90476 9.5119 8.90476C8.73071 8.90476 8.09524 8.26929 8.09524 7.4881C8.09524 6.7069 8.73071 6.07143 9.5119 6.07143ZM13.9643 6.07143C14.7455 6.07143 15.381 6.7069 15.381 7.4881C15.381 8.26929 14.7455 8.90476 13.9643 8.90476C13.1831 8.90476 12.5476 8.26929 12.5476 7.4881C12.5476 6.7069 13.1831 6.07143 13.9643 6.07143ZM9.5119 6.88095C9.46991 6.88095 9.42894 6.88553 9.38937 6.8936C9.31024 6.90974 9.23656 6.94092 9.17197 6.98451C9.10738 7.02811 9.05192 7.08357 9.00832 7.14816C8.96473 7.21275 8.93355 7.28643 8.91741 7.36556C8.90934 7.40513 8.90476 7.4461 8.90476 7.4881C8.90476 7.53009 8.90934 7.57106 8.91741 7.61063C8.92548 7.6502 8.93686 7.68814 8.9522 7.72447C8.96753 7.7608 8.98653 7.79574 9.00832 7.82803C9.03012 7.86033 9.05519 7.88992 9.08264 7.91736C9.11008 7.94481 9.13967 7.96988 9.17197 7.99168C9.23656 8.03527 9.31024 8.06645 9.38937 8.08259C9.42894 8.09066 9.46991 8.09524 9.5119 8.09524C9.5539 8.09524 9.59487 8.09066 9.63444 8.08259C9.91141 8.02609 10.119 7.78205 10.119 7.4881C10.119 7.15214 9.84786 6.88095 9.5119 6.88095ZM13.9643 6.88095C13.9223 6.88095 13.8813 6.88553 13.8418 6.8936C13.8022 6.90167 13.7642 6.91305 13.7279 6.92839C13.6916 6.94372 13.6566 6.96272 13.6243 6.98451C13.5921 7.00631 13.5625 7.03138 13.535 7.05883C13.4801 7.11372 13.4352 7.17905 13.4046 7.25172C13.3892 7.28805 13.3779 7.32599 13.3698 7.36556C13.3617 7.40513 13.3571 7.4461 13.3571 7.4881C13.3571 7.53009 13.3617 7.57106 13.3698 7.61063C13.3779 7.6502 13.3892 7.68814 13.4046 7.72447C13.4199 7.7608 13.4389 7.79574 13.4607 7.82803C13.4825 7.86033 13.5076 7.88992 13.535 7.91736C13.5625 7.94481 13.5921 7.96988 13.6243 7.99168C13.6566 8.01347 13.6916 8.03247 13.7279 8.0478C13.7642 8.06314 13.8022 8.07452 13.8418 8.08259C13.8813 8.09066 13.9223 8.09524 13.9643 8.09524C14.0063 8.09524 14.0473 8.09066 14.0868 8.08259C14.3638 8.02609 14.5714 7.78205 14.5714 7.4881C14.5714 7.15214 14.3002 6.88095 13.9643 6.88095Z" fill="currentColor"/>
</svg>
